<svg width="943" height="88" viewBox="0 0 943 88" fill="none" xmlns="http://www.w3.org/2000/svg">
<mask id="mask0_5764_1933" style="mask-type:luminance" maskUnits="userSpaceOnUse" x="417" y="0" width="68" height="88">
<path d="M484.351 0H417.344V87.8516H484.351V0Z" fill="white"/>
</mask>
<g mask="url(#mask0_5764_1933)">
<path d="M440.732 0H417.328L457.416 40.4663C459.1 42.1662 461.214 43.3506 463.536 43.896C461.265 44.3987 459.18 45.5576 457.534 47.2192L417.337 87.8516H441.706L484.339 43.9258L440.732 0Z" fill="#D1FF9F"/>
</g>
<path d="M13.7171 86.5493H0V5.77441H13.7171V45.363L50.0778 5.77441H67.4584L36.1328 38.8956L69.7502 86.5578H52.9478L26.6448 48.9376L13.7297 62.5584V86.5578L13.7213 86.5493H13.7171Z" fill="white"/>
<path d="M83.1633 83.7615C78.491 81.0816 74.6629 77.1193 72.1263 72.3348C69.442 67.2435 68.0914 61.5429 68.18 55.7785C68.0534 49.7882 69.404 43.8576 72.1263 38.5192C74.5743 33.7431 78.3264 29.7809 82.9269 27.0925C87.5865 24.4126 92.8749 23.0408 98.2394 23.1089C103.507 22.9896 108.707 24.3232 113.269 26.9732C117.625 29.6104 121.141 33.4577 123.386 38.0548C125.944 43.3548 127.222 49.1832 127.155 55.0755V58.3092H81.6523C82.1123 63.7754 83.923 68.1425 87.0884 71.406C90.2497 74.6696 94.3817 76.3099 99.4929 76.3099C102.675 76.3993 105.82 75.5387 108.521 73.8302C111.049 72.1601 112.906 69.6507 113.78 66.7322H126.931C125.678 72.9014 122.272 78.4145 117.325 82.249C112.45 85.9855 106.465 87.843 99.3747 87.843C93.6937 87.9538 88.093 86.5393 83.1379 83.753M113.21 48.7231C112.366 44.2666 110.635 40.7943 108.01 38.336C105.355 35.8649 101.852 34.5399 98.2394 34.6378C94.4999 34.5569 90.8659 35.8947 88.0676 38.3828C85.109 41.1309 83.062 44.7395 82.2432 48.7103H113.223L113.214 48.7188L113.21 48.7231Z" fill="white"/>
<path d="M147.609 83.7615C142.936 81.0816 139.108 77.1193 136.572 72.3348C133.887 67.2435 132.537 61.5429 132.625 55.7785C132.499 49.7882 133.849 43.8576 136.572 38.5192C139.02 33.7431 142.772 29.7809 147.372 27.0925C152.032 24.4126 157.32 23.0408 162.697 23.1089C167.965 22.9896 173.165 24.3232 177.727 26.9732C182.083 29.6104 185.598 33.4577 187.844 38.0548C190.402 43.3548 191.68 49.1832 191.613 55.0755V58.3092H146.11C146.57 63.7754 148.381 68.1425 151.546 71.406C154.708 74.6781 158.84 76.3099 163.951 76.3099C167.133 76.3993 170.278 75.5387 172.979 73.8302C175.507 72.1601 177.364 69.6507 178.238 66.7322H191.389C190.136 72.9014 186.73 78.4145 181.783 82.249C176.908 85.9855 170.923 87.843 163.833 87.843C158.152 87.9538 152.551 86.5393 147.596 83.753M177.668 48.7231C176.824 44.2666 175.093 40.7943 172.468 38.336C169.813 35.8649 166.31 34.5399 162.697 34.6378C158.958 34.5569 155.324 35.8947 152.526 38.3828C149.567 41.1309 147.52 44.7395 146.701 48.7103H177.681L177.672 48.7188L177.668 48.7231Z" fill="white"/>
<path d="M213.993 0H200.5V86.5564H213.993V0Z" fill="white"/>
<path d="M259.273 86.5471H245.21L219.945 25.3833H234.574L252.296 70.5063L269.901 25.3833H284.521L259.256 86.5471H259.265H259.273Z" fill="white"/>
<path d="M291.198 82.6039C287.045 79.4128 284.96 75.0031 284.969 69.3878C284.969 62.9246 287.349 58.3872 292.119 55.767C296.888 53.1468 303.155 51.3786 310.93 50.4584C311.614 50.3774 313.69 50.1516 317.16 49.7682C320.625 49.3847 323.123 48.7499 324.651 47.8595C326.04 47.1863 326.935 45.7718 326.935 44.221C326.956 41.4133 325.689 38.7548 323.507 37.0037C321.296 35.193 318.286 34.294 314.479 34.294C310.934 34.1662 307.448 35.193 304.531 37.2295C301.957 39.0274 300.29 41.8735 299.96 45.0177H286.349C286.691 40.885 288.198 36.9441 290.696 33.6507C293.309 30.2295 296.757 27.5411 300.703 25.8625C305.131 23.9666 309.896 23.0165 314.707 23.0932C322.705 23.0932 328.944 25.0913 333.401 29.092C337.858 33.0968 340.09 38.4438 340.09 45.1328V72.8303C340.09 74.5984 341.078 75.4888 343.066 75.4803H346.383V86.106H339.981C337.397 86.2253 334.831 85.582 332.607 84.257C330.746 83.0427 329.454 81.134 329.003 78.9484C328.779 78.2667 328.581 77.5765 328.433 76.8735C324.702 83.8735 317.877 87.3799 307.967 87.3799C300.957 87.3799 295.373 85.7865 291.224 82.5868M322.372 72.9496C325.369 70.6063 327.061 66.9593 326.943 63.1334V54.6039C325.799 56.3336 324.035 57.5479 322.026 58.0037C318.873 58.826 315.661 59.4267 312.42 59.7931C307.688 60.3385 304.206 61.1395 301.961 62.2131C299.707 63.291 298.593 65.2892 298.593 68.2119C298.483 70.7043 299.682 73.0646 301.737 74.4493C303.831 75.9106 306.819 76.6434 310.715 76.6434C315.446 76.6434 319.333 75.4079 322.376 72.9453" fill="white"/>
<path d="M353.364 86.5499V25.3947H364.223L365.827 37.3922C369.795 28.9309 376.805 24.7002 386.859 24.7002H389.15V37.9759H386.867C380.54 37.9759 375.627 39.5864 372.12 42.8201C368.613 46.0538 366.861 50.5487 366.861 56.3217V86.5585H353.368L353.359 86.5499H353.364Z" fill="white"/>
<path d="M521.539 84.9406V7.0127H530.855V49.6481L570.891 7.0127H582.977L552.037 39.5204L585.084 84.9406H573.55L545.605 46.3138L530.855 61.7895V84.9452H521.539V84.9406Z" fill="white"/>
<path d="M588.688 55.0725C588.688 35.5004 601.258 24.9966 616.863 24.9966C635.179 24.9966 645.039 38.4865 645.039 55.0725C645.039 75.305 633.008 86.1437 616.863 86.1437C598.439 86.1437 588.688 72.7639 588.688 55.0725ZM635.831 55.0725C635.831 41.9128 628.355 32.9593 616.868 32.9593C605.381 32.9593 597.904 41.9174 597.904 55.0725C597.904 70.1081 606.464 78.1809 616.868 78.1809C629.114 78.1809 635.831 67.7872 635.831 55.0725Z" fill="white"/>
<path d="M657.016 84.9447V26.3226H664.258L665.136 35.2839C669.088 29.0895 676.658 24.9966 685.325 24.9966C697.834 24.9966 706.173 33.1824 706.173 46.1218V84.9447H697.064V46.4568C697.064 38.271 691.798 33.0722 683.021 33.0722C672.597 33.0722 666.234 40.3725 666.124 49.3291V84.9447H657.016Z" fill="white"/>
<path d="M720.555 84.9447V26.3226H727.797L728.676 35.2839C732.627 29.0895 740.197 24.9966 748.864 24.9966C761.373 24.9966 769.712 33.1824 769.712 46.1218V84.9447H760.604V46.4568C760.604 38.271 755.337 33.0722 746.56 33.0722C736.136 33.0722 729.773 40.3725 729.663 49.3291V84.9447H720.555Z" fill="white"/>
<path d="M781.695 55.8454C781.695 35.8315 794.472 24.9966 809.107 24.9966C825.051 24.9966 835.318 35.8315 835.649 54.6297V57.171H790.762C791.31 69.6665 798.514 78.1803 810.203 78.1803C818.286 78.1803 824.181 74.0886 826.587 66.4601H835.436C832.812 78.5106 823.42 86.1437 810.208 86.1437C793.059 86.1437 781.704 73.428 781.704 55.8454H781.695ZM826.147 49.5426C824.507 39.2581 818.395 32.9553 809.111 32.9553C799.828 32.9553 793.167 39.0379 791.31 49.5426H826.152H826.147Z" fill="white"/>
<path d="M845.258 55.2926C845.258 35.6105 858.059 24.9966 873.814 24.9966C888.367 24.9966 898.762 33.84 900.406 48.8802H891.54C890.006 39.1516 883.333 32.9593 873.597 32.9593C862.108 32.9593 854.45 41.4725 854.45 55.2926C854.45 70.2182 863.424 78.1809 874.255 78.1809C883.556 78.1809 889.902 72.2089 891.545 62.0399H900.41C898.767 77.1856 889.139 86.1437 874.15 86.1437C855.33 86.1437 845.262 72.2135 845.262 55.2972L845.258 55.2926Z" fill="white"/>
<path d="M934.803 84.944C923.368 84.944 917.261 79.0434 917.261 68.138V33.7456H906.383V25.9567H917.261V5.8125H926.477V25.9567H942.352V33.7456H926.477V68.138C926.477 74.0386 929.364 77.1551 934.803 77.1551H941.352V84.944H934.803Z" fill="white"/>
</svg>
