<svg width="481" height="190" viewBox="0 0 481 190" fill="none" xmlns="http://www.w3.org/2000/svg">
<mask id="mask0_6612_1326" style="mask-type:luminance" maskUnits="userSpaceOnUse" x="414" y="0" width="67" height="88">
<path d="M480.484 0.000976562H414.016V87.1461H480.484V0.000976562Z" fill="white"/>
</mask>
<g mask="url(#mask0_6612_1326)">
<path d="M437.231 0.000976562H414.016L453.781 40.1418C455.451 41.8281 457.549 43.003 459.851 43.544C457.599 44.0426 455.531 45.1922 453.898 46.8404L414.024 87.1461H438.198L480.488 43.5735L437.231 0.000976562Z" fill="#9661F5"/>
</g>
<path d="M13.6224 85.8524H0.015625V5.72705H13.6224V44.9973L49.6907 5.72705H66.9315L35.8579 38.5819L69.2049 85.8608H52.5376L26.4462 48.5431L13.6349 62.0544V85.8608L13.6266 85.8524H13.6224Z" fill="#210D59"/>
<path d="M82.5036 83.0886C77.869 80.4303 74.0716 76.4999 71.5554 71.7538C68.8927 66.7034 67.553 61.0487 67.6409 55.3306C67.5153 49.3885 68.855 43.5056 71.5554 38.2101C73.9837 33.4725 77.7057 29.5421 82.2692 26.8753C86.8913 24.217 92.1372 22.8562 97.4585 22.9238C102.683 22.8055 107.841 24.1283 112.367 26.757C116.688 29.373 120.175 33.1893 122.403 37.7495C124.94 43.0069 126.208 48.7884 126.142 54.6333V57.841H81.0048C81.4612 63.2633 83.2572 67.5952 86.3973 70.8325C89.5331 74.0698 93.6319 75.6969 98.7019 75.6969C101.859 75.7856 104.978 74.9319 107.657 73.2372C110.165 71.5805 112.007 69.0913 112.874 66.1963H125.92C124.676 72.3159 121.298 77.7847 116.391 81.5883C111.555 85.2947 105.618 87.1373 98.5847 87.1373C92.9494 87.2472 87.3937 85.8441 82.4785 83.0801M112.309 48.332C111.471 43.9113 109.755 40.4669 107.151 38.0284C104.517 35.5772 101.042 34.2628 97.4585 34.36C93.7491 34.2797 90.1444 35.6068 87.3686 38.0749C84.4337 40.8008 82.4032 44.3804 81.5909 48.3193H112.321L112.313 48.3277L112.309 48.332Z" fill="#210D59"/>
<path d="M146.449 83.0886C141.814 80.4303 138.017 76.4999 135.501 71.7538C132.838 66.7034 131.498 61.0487 131.586 55.3306C131.461 49.3885 132.8 43.5056 135.501 38.2101C137.929 33.4725 141.651 29.5421 146.215 26.8753C150.837 24.217 156.083 22.8562 161.416 22.9238C166.641 22.8055 171.799 24.1283 176.325 26.757C180.646 29.373 184.133 33.1893 186.361 37.7495C188.898 43.0069 190.166 48.7884 190.099 54.6333V57.841H144.963C145.419 63.2633 147.215 67.5952 150.355 70.8325C153.491 74.0782 157.59 75.6969 162.66 75.6969C165.817 75.7856 168.936 74.9319 171.615 73.2372C174.123 71.5805 175.965 69.0913 176.832 66.1963H189.877C188.634 72.3159 185.255 77.7847 180.349 81.5883C175.513 85.2947 169.576 87.1373 162.543 87.1373C156.907 87.2472 151.352 85.8441 146.436 83.0801M176.267 48.332C175.429 43.9113 173.713 40.4669 171.109 38.0284C168.475 35.5772 165 34.2628 161.416 34.36C157.707 34.2797 154.102 35.6068 151.326 38.0749C148.392 40.8008 146.361 44.3804 145.549 48.3193H176.279L176.271 48.3277L176.267 48.332Z" fill="#210D59"/>
<path d="M212.275 0H198.891V85.8603H212.275V0Z" fill="#210D59"/>
<path d="M257.176 85.8516H243.226L218.164 25.1797H232.675L250.255 69.9398L267.718 25.1797H282.22L257.159 85.8516H257.167H257.176Z" fill="#210D59"/>
<path d="M288.867 81.9395C284.747 78.774 282.679 74.3999 282.688 68.8297C282.688 62.4185 285.049 57.9175 289.78 55.3184C294.511 52.7193 300.728 50.9654 308.44 50.0525C309.118 49.9722 311.178 49.7482 314.619 49.3678C318.057 48.9875 320.535 48.3578 322.051 47.4745C323.428 46.8067 324.316 45.4036 324.316 43.8653C324.337 41.0802 323.081 38.443 320.916 36.706C318.722 34.9099 315.737 34.0181 311.961 34.0181C308.444 33.8913 304.986 34.9099 302.093 36.93C299.539 38.7135 297.885 41.5366 297.559 44.6556H284.057C284.396 40.5561 285.89 36.6469 288.369 33.38C290.96 29.9863 294.381 27.3195 298.296 25.6544C302.687 23.7737 307.414 22.8313 312.187 22.9073C320.121 22.9073 326.309 24.8894 330.73 28.8579C335.151 32.8306 337.366 38.1345 337.366 44.7697V72.2445C337.366 73.9984 338.345 74.8817 340.317 74.8732H343.608V85.4135H337.257C334.695 85.5318 332.149 84.8936 329.943 83.5793C328.096 82.3748 326.815 80.4814 326.367 78.3134C326.145 77.6372 325.949 76.9525 325.802 76.2552C322.101 83.1989 315.331 86.6771 305.501 86.6771C298.547 86.6771 293.008 85.0965 288.892 81.9226M319.79 72.3628C322.763 70.0384 324.441 66.4207 324.324 62.6256V54.1646C323.19 55.8805 321.44 57.085 319.447 57.5372C316.319 58.3528 313.133 58.9487 309.918 59.3122C305.224 59.8531 301.77 60.6477 299.543 61.7127C297.307 62.7819 296.202 64.764 296.202 67.6632C296.093 70.1356 297.282 72.4769 299.321 73.8505C301.398 75.3001 304.362 76.027 308.226 76.027C312.92 76.027 316.776 74.8014 319.794 72.3586" fill="#210D59"/>
<path d="M350.512 85.8553V25.1918H361.284L362.875 37.0929C366.811 28.6996 373.765 24.5029 383.738 24.5029H386.011V37.6719H383.746C377.47 37.6719 372.597 39.2694 369.118 42.4771C365.639 45.6849 363.901 50.1435 363.901 55.8701V85.8637H350.516L350.508 85.8553H350.512Z" fill="#210D59"/>
<path d="M0 188.541V117.227H8.47805V156.244L44.9106 117.227H55.9091L27.7536 146.976L57.8266 188.541H47.3305L21.9006 153.192L8.47805 167.355V188.545H0V188.541Z" fill="#210D59"/>
<path d="M61.25 161.034C61.25 143 72.956 133.322 87.488 133.322C104.545 133.322 113.726 145.752 113.726 161.034C113.726 179.676 102.522 189.662 87.488 189.662C70.3309 189.662 61.25 177.334 61.25 161.034ZM105.152 161.034C105.152 148.909 98.1892 140.659 87.4922 140.659C76.7952 140.659 69.8327 148.913 69.8327 161.034C69.8327 174.887 77.8042 182.326 87.4922 182.326C98.8967 182.326 105.152 172.749 105.152 161.034Z" fill="#210D59"/>
<path d="M124.734 188.543V134.549H131.395L132.203 142.803C135.837 137.097 142.8 133.328 150.771 133.328C162.276 133.328 169.946 140.867 169.946 152.785V188.543H161.569V153.094C161.569 145.554 156.725 140.766 148.653 140.766C139.065 140.766 133.212 147.49 133.112 155.739V188.543H124.734Z" fill="#210D59"/>
<path d="M183.07 188.543V134.549H189.731L190.539 142.803C194.173 137.097 201.136 133.328 209.107 133.328C220.612 133.328 228.282 140.867 228.282 152.785V188.543H219.905V153.094C219.905 145.554 215.061 140.766 206.989 140.766C197.401 140.766 191.548 147.49 191.448 155.739V188.543H183.07Z" fill="#210D59"/>
<path d="M238.656 161.749C238.656 143.31 250.463 133.328 263.986 133.328C278.719 133.328 288.206 143.31 288.511 160.629V162.97H247.034C247.54 174.483 254.197 182.327 264.999 182.327C272.468 182.327 277.915 178.557 280.138 171.529H288.315C285.89 182.631 277.211 189.663 265.003 189.663C249.156 189.663 238.665 177.948 238.665 161.749H238.656ZM279.732 155.942C278.216 146.467 272.568 140.66 263.99 140.66C255.411 140.66 249.257 146.264 247.54 155.942H279.736H279.732Z" fill="#210D59"/>
<path d="M296.805 161.237C296.805 143.102 308.611 133.322 323.143 133.322C336.566 133.322 346.153 141.47 347.669 155.328H339.492C338.077 146.364 331.923 140.659 322.942 140.659C312.346 140.659 305.283 148.503 305.283 161.237C305.283 174.989 313.56 182.326 323.549 182.326C332.128 182.326 337.981 176.823 339.496 167.453H347.673C346.157 181.408 337.277 189.662 323.453 189.662C306.095 189.662 296.809 176.827 296.809 161.241L296.805 161.237Z" fill="#210D59"/>
<path d="M379.133 188.543C368.737 188.543 363.186 183.142 363.186 173.159V141.678H353.297V134.548H363.186V116.109H371.563V134.548H385.995V141.678H371.563V173.159C371.563 178.561 374.188 181.413 379.133 181.413H385.086V188.543H379.133Z" fill="#210D59"/>
</svg>
