<?xml version="1.0" encoding="UTF-8"?><svg id="Layer_1" xmlns="http://www.w3.org/2000/svg" xmlns:xlink="http://www.w3.org/1999/xlink" viewBox="0 0 494.64 88.88"><defs><style>.cls-1{fill:none;}.cls-2{clip-path:url(#clippath);}.cls-3{fill:#fff;}</style><clipPath id="clippath"><rect class="cls-1" x="426.21" y="0" width="68.43" height="88.88"/></clipPath></defs><g id="Group_13620"><g id="Group_13592"><g class="cls-2"><g id="Group_13591"><path id="Path_494" class="cls-3" d="m450.11,0h-23.9l40.94,40.94c1.72,1.72,3.88,2.92,6.25,3.47-2.32.51-4.45,1.68-6.13,3.36l-41.05,41.11h24.89l43.54-44.44L450.11,0Z"/></g></g></g><g id="Group_13468"><g id="Group_13467"><path id="Path_458" class="cls-3" d="m14.01,87.56H0V5.84h14.01v40.05L51.14,5.84h17.75l-31.99,33.51,34.33,48.22h-17.16l-26.86-38.06-13.19,13.78v24.28Z"/><path id="Path_459" class="cls-3" d="m84.93,84.74c-4.77-2.71-8.68-6.72-11.27-11.56-2.74-5.15-4.12-10.92-4.03-16.75-.13-6.06,1.25-12.06,4.03-17.46,2.5-4.83,6.33-8.84,11.03-11.56,4.76-2.71,10.16-4.1,15.64-4.03,5.38-.12,10.69,1.23,15.35,3.91,4.45,2.67,8.04,6.56,10.33,11.21,2.61,5.36,3.92,11.26,3.85,17.22v3.27h-46.47c.47,5.53,2.32,9.95,5.55,13.25s7.45,4.96,12.67,4.96c3.25.09,6.46-.78,9.22-2.51,2.58-1.69,4.48-4.23,5.37-7.18h13.43c-1.28,6.24-4.76,11.82-9.81,15.7-4.98,3.78-11.09,5.66-18.33,5.66-5.8.11-11.52-1.32-16.58-4.14m30.71-35.44c-.86-4.51-2.63-8.02-5.31-10.51-2.71-2.5-6.29-3.84-9.98-3.74-3.82-.08-7.53,1.27-10.39,3.79-3.02,2.78-5.11,6.43-5.95,10.45h31.64Z"/><path id="Path_460" class="cls-3" d="m150.75,84.74c-4.77-2.71-8.68-6.72-11.27-11.56-2.74-5.15-4.12-10.92-4.03-16.75-.13-6.06,1.25-12.06,4.03-17.46,2.5-4.83,6.33-8.84,11.03-11.56,4.76-2.71,10.16-4.1,15.65-4.03,5.38-.12,10.69,1.23,15.35,3.91,4.45,2.67,8.04,6.56,10.33,11.21,2.61,5.36,3.92,11.26,3.85,17.22v3.27h-46.47c.47,5.53,2.32,9.95,5.55,13.25,3.23,3.31,7.45,4.96,12.67,4.96,3.25.09,6.46-.78,9.22-2.51,2.58-1.69,4.48-4.23,5.37-7.18h13.43c-1.28,6.24-4.76,11.82-9.81,15.7-4.98,3.78-11.09,5.66-18.33,5.66-5.8.11-11.52-1.32-16.58-4.14m30.71-35.44c-.86-4.51-2.63-8.02-5.31-10.51-2.71-2.5-6.29-3.84-9.98-3.74-3.82-.08-7.53,1.27-10.39,3.79-3.02,2.78-5.11,6.43-5.95,10.45h31.64Z"/><rect id="Rectangle_13081" class="cls-3" x="204.74" y="0" width="13.78" height="87.57"/><path id="Path_461" class="cls-3" d="m264.76,87.56h-14.36l-25.8-61.88h14.94l18.1,45.65,17.98-45.65h14.93l-25.8,61.88Z"/><path id="Path_462" class="cls-3" d="m297.38,83.57c-4.24-3.23-6.37-7.69-6.36-13.37,0-6.54,2.43-11.13,7.3-13.78,4.87-2.65,11.27-4.44,19.21-5.37.7-.08,2.82-.31,6.36-.7,3.54-.39,6.09-1.03,7.65-1.93,1.42-.68,2.33-2.11,2.33-3.68.02-2.84-1.27-5.53-3.5-7.3-2.26-1.83-5.33-2.74-9.22-2.74-3.62-.13-7.18.91-10.16,2.97-2.63,1.82-4.33,4.7-4.67,7.88h-13.9c.35-4.18,1.89-8.17,4.44-11.5,2.67-3.46,6.19-6.18,10.22-7.88,4.52-1.92,9.39-2.88,14.3-2.8,8.17,0,14.54,2.02,19.09,6.07,4.55,4.05,6.83,9.46,6.83,16.23v28.02c0,1.79,1.01,2.69,3.04,2.68h3.39v10.75h-6.54c-2.64.12-5.26-.53-7.53-1.87-1.9-1.23-3.22-3.16-3.68-5.37-.23-.69-.43-1.39-.58-2.1-3.81,7.08-10.78,10.63-20.9,10.63-7.16,0-12.86-1.61-17.1-4.85m31.81-9.75c3.06-2.37,4.79-6.06,4.67-9.93v-8.63c-1.17,1.75-2.97,2.98-5.02,3.44-3.22.83-6.5,1.44-9.81,1.81-4.83.55-8.39,1.36-10.68,2.45-2.3,1.09-3.44,3.11-3.44,6.07-.11,2.52,1.11,4.91,3.21,6.31,2.14,1.48,5.19,2.22,9.17,2.22,4.83,0,8.8-1.25,11.91-3.74"/><path id="Path_463" class="cls-3" d="m360.85,87.56V25.69h11.09l1.64,12.14c4.05-8.56,11.21-12.84,21.48-12.84h2.34v13.43h-2.33c-6.46,0-11.48,1.63-15.06,4.9-3.58,3.27-5.37,7.82-5.37,13.66v30.59h-13.78Z"/></g></g></g></svg>