<?xml version="1.0" encoding="UTF-8"?><svg id="Layer_1" xmlns="http://www.w3.org/2000/svg" viewBox="0 0 872.17 872.17"><defs><style>.cls-1{fill:#7878ff;}</style></defs><path class="cls-1" d="M844.24,0C828.84,0,816.31,12.53,816.31,27.93v265.28c-.25,19.54-6.18,33.8-18.11,43.61-26.46,21.77-77.93,18.18-95.67,14.92-54.92-9.81-95.66-28.64-124.58-57.56-28.9-28.91-47.72-69.64-57.52-124.55l-20.79-116.41C493.12,16.67,462.13,0,436.08,0s-57.04,16.66-63.57,53.23l-20.79,116.41c-9.81,54.91-28.63,95.66-57.55,124.58-28.91,28.91-69.65,47.72-124.69,57.55-17.65,3.23-69.2,6.82-95.61-15.17-12.13-10.11-18.03-24.89-18.03-45.19V27.93C55.85,12.53,43.33,0,27.93,0S0,12.53,0,27.93v814.88c0,15.4,12.53,27.93,27.93,27.93s27.93-12.53,27.93-27.93v-262.09c0-12.42,0-50.22,68.16-59.26,24.29-3.21,49.76-1.32,75.68,5.63,40.12,10.77,71.03,27.42,94.51,50.9,28.9,28.91,47.72,69.65,57.52,124.55l20.79,116.41c6.53,36.57,37.52,53.22,63.55,53.22h.02c26.04,0,57.04-16.65,63.56-53.22l20.79-116.41c9.81-54.91,28.63-95.66,57.56-124.58,23.53-23.53,54.54-40.2,94.8-50.96,25.81-6.9,51.08-8.88,75.13-5.87,67.74,8.46,68.23,45.58,68.39,57.51v264.17c0,15.4,12.53,27.93,27.93,27.93s27.93-12.53,27.93-27.93V27.93C872.17,12.53,859.64,0,844.24,0ZM812.79,465.19l-116.41,20.79c-123.47,22.05-188.36,86.94-210.41,210.41l-20.79,116.41c-3.21,17.98-17.68,24.36-29.1,24.36s-25.89-6.38-29.11-24.36l-20.79-116.41c-22.05-123.47-86.94-188.36-210.41-210.41l-116.41-20.79c-17.98-3.21-24.37-17.68-24.37-29.1s6.38-25.9,24.37-29.1l116.41-20.79c123.47-22.05,188.36-86.94,210.41-210.41l20.79-116.41c3.21-17.99,17.69-24.37,29.11-24.37s25.89,6.39,29.1,24.37l20.79,116.41c22.05,123.47,86.94,188.36,210.41,210.41l116.41,20.79c17.98,3.21,24.37,17.68,24.37,29.1s-6.38,25.89-24.37,29.1h0Z"/></svg>