<?xml version="1.0" encoding="UTF-8"?>
<svg id="Layer_1" xmlns="http://www.w3.org/2000/svg" xmlns:xlink="http://www.w3.org/1999/xlink" version="1.1" viewBox="0 0 872.17 872.17">
  <!-- Generator: Adobe Illustrator 30.2.1, SVG Export Plug-In . SVG Version: 2.1.1 Build 1)  -->
  <defs>
    <style>
      .st0 {
        fill: none;
      }

      .st1 {
        clip-path: url(#clippath-1);
      }

      .st2 {
        fill: #213036;
      }

      .st3 {
        clip-path: url(#clippath);
      }
    </style>
    <clipPath id="clippath">
      <rect class="st0" x="1903.24" y="1177.88" width="485.96" height="1024.68"/>
    </clipPath>
    <clipPath id="clippath-1">
      <rect class="st0" x="2342.99" y="1178.28" width="485.96" height="1024.68" transform="translate(5171.93 3381.24) rotate(180)"/>
    </clipPath>
  </defs>
  <path d="M844.24,0c-15.4,0-27.93,12.53-27.93,27.93v265.28c-.25,19.54-6.18,33.8-18.11,43.61-26.46,21.77-77.93,18.18-95.67,14.92-54.92-9.81-95.66-28.64-124.58-57.56-28.9-28.91-47.72-69.64-57.52-124.55l-20.79-116.41C493.12,16.67,462.13,0,436.08,0s-57.04,16.66-63.57,53.23l-20.79,116.41c-9.81,54.91-28.63,95.66-57.55,124.58-28.91,28.91-69.65,47.72-124.69,57.55-17.65,3.23-69.2,6.82-95.61-15.17-12.13-10.11-18.03-24.89-18.03-45.19V27.93c.01-15.4-12.51-27.93-27.91-27.93S0,12.53,0,27.93v814.88c0,15.4,12.53,27.93,27.93,27.93s27.93-12.53,27.93-27.93v-262.09c0-12.42,0-50.22,68.16-59.26,24.29-3.21,49.76-1.32,75.68,5.63,40.12,10.77,71.03,27.42,94.51,50.9,28.9,28.91,47.72,69.65,57.52,124.55l20.79,116.41c6.53,36.57,37.52,53.22,63.55,53.22h.02c26.04,0,57.04-16.65,63.56-53.22l20.79-116.41c9.81-54.91,28.63-95.66,57.56-124.58,23.53-23.53,54.54-40.2,94.8-50.96,25.81-6.9,51.08-8.88,75.13-5.87,67.74,8.46,68.23,45.58,68.39,57.51v264.17c0,15.4,12.53,27.93,27.93,27.93s27.93-12.53,27.93-27.93V27.93c-.01-15.4-12.54-27.93-27.94-27.93ZM812.79,465.19l-116.41,20.79c-123.47,22.05-188.36,86.94-210.41,210.41l-20.79,116.41c-3.21,17.98-17.68,24.36-29.1,24.36s-25.89-6.38-29.11-24.36l-20.79-116.41c-22.05-123.47-86.94-188.36-210.41-210.41l-116.41-20.79c-17.98-3.21-24.37-17.68-24.37-29.1s6.38-25.9,24.37-29.1l116.41-20.79c123.47-22.05,188.36-86.94,210.41-210.41l20.79-116.41c3.21-17.99,17.69-24.37,29.11-24.37s25.89,6.39,29.1,24.37l20.79,116.41c22.05,123.47,86.94,188.36,210.41,210.41l116.41,20.79c17.98,3.21,24.37,17.68,24.37,29.1s-6.38,25.89-24.37,29.1h0Z"/>
  <path d="M1727.55-5.83c-19.61,2.89-36.27,17.49-43.04,37.4,1,85.53,2.01,171.06,3.01,256.59-.08,7.75-1.22,33.79-19.06,46.14-16.31,11.29-37.35,4.76-64.19-4.01-23.11-7.55-56.57-18.48-90.27-49.15-43.6-39.68-59.44-86.75-65.19-108.32-10.22-30.36-14.36-55.25-16.23-72.56-1.81-16.74-1.59-27.2-7.1-43.67-3.67-10.97-9.63-28.8-25.82-44.25-24.46-23.34-55.16-24.91-62.59-25.07-12.17-.27-41.69,1.43-65.8,24.07-14.92,14.01-21.24,29.93-23.89,38.25-9.52,38.39-19.04,76.78-28.56,115.17-3.23,19.9-13.21,63.59-48.85,103.34-37.12,41.41-80.15,54.14-98.29,59.18-18.88,5.24-42.28,11.4-57.23-.7-13.34-10.8-13.51-30.93-13.59-40.05-.43-49.8-1.27-137.4-1.02-250.13-5.64-24.14-27.61-40.84-51.61-39.83-22.45.95-41.97,17.19-47.25,39.69v803.12c2.87,6.07,11.12,21.21,27.93,27.93,23.59,9.43,54.68-1.47,73.94-28.6.33-87.73.66-175.45.99-263.18,3.52-9.28,11.31-25.25,27.71-34.61,26.94-15.38,58.31-2.2,80.24,7.02,42.93,18.05,65.33,49.89,70.66,57.84,22.06,32.91,25.85,65.5,26.63,80.57,7.69,40.12,15.38,80.24,23.07,120.36,2.82,8.44,16.43,46.16,56.17,66.2,8.24,4.15,33.66,16.53,64.7,10.33,52.83-10.54,76.02-65.69,79.73-74.53,5.55-13.2,8.71-31.2,15.04-67.2,5.79-32.93,4.37-35.95,7.67-51.18,10.45-48.22,38.4-81.38,49.5-94.26,24.02-27.87,48.29-56.94,87.26-61.18,8.84-.96,33.97-3.31,56.79,13.25,27.96,20.3,31.06,53.49,31.48,58.96-1.34,78.23-2.67,156.47-4.01,234.7,1.78,2,29.84,32.53,68.75,25.49,23.02-4.16,37.04-19.16,41.58-24.49V31.57c-9.42-25.69-34.71-41.01-59.26-37.4ZM1597.36,482.54c-123.47,22.05-188.36,86.94-210.41,210.41l-20.79,116.41c-3.21,17.98-17.68,24.36-29.1,24.36s-25.89-6.38-29.11-24.36l-20.79-116.41c-2.86-22.35-14.01-86.31-67.17-143.24-57.1-61.14-126.09-75.01-147.62-78.47-26.81-3.31-53.63-6.62-80.44-9.93-12.62-1.7-22.37-11.36-23.84-22.84-1.74-13.65,8.55-27.46,23.84-29.79,14.32-1.61,34.17-4.3,57.6-8.94,31.45-6.23,57.55-11.39,84.42-22.84,8.93-3.8,49.27-21.65,86.04-61.31,50.39-54.35,63.28-116.45,67.17-143.24l16.42-103.42c4.53-14.53,18.17-24.33,33.17-23.96,15.54.39,29.01,11.61,32.28,27.04,5.97,33.44,11.95,66.89,17.92,100.33,22.05,123.47,86.94,188.36,210.41,210.41,34.94,10.08,69.89,20.16,104.83,30.24,13.42,4.95,22.97,16.6,24.37,29.91,1.76,16.76-9.68,33.53-27.69,38.77l-101.5.86Z"/>
  <path d="M1938.68,626.6"/>
  <path d="M2838.77,33.29c-19.61,2.89-36.27,17.49-43.04,37.4,1,85.53,2.01,171.06,3.01,256.59-.08,7.75-1.22,33.79-19.06,46.14-16.31,11.29-37.35,4.76-64.19-4.01-23.11-7.55-56.57-18.48-90.27-49.15-43.6-39.68-59.44-86.75-65.19-108.32-10.22-30.36-14.36-55.25-16.23-72.56-1.81-16.74-1.59-27.2-7.1-43.67-3.67-10.97-9.63-28.8-25.82-44.25-24.46-23.34-55.16-24.91-62.59-25.07-12.17-.27-41.69,1.43-65.8,24.07-14.92,14.01-21.24,29.93-23.89,38.25-9.52,38.39-19.04,76.78-28.56,115.17-3.23,19.9-13.21,63.59-48.85,103.34-37.12,41.41-80.15,54.14-98.29,59.18-18.88,5.24-42.28,11.4-57.23-.7-13.34-10.8-13.51-30.93-13.59-40.05-.43-49.8-1.27-137.4-1.02-250.13-5.64-24.14-27.61-40.84-51.61-39.83-22.45.95-41.97,17.19-47.25,39.69v803.12c2.87,6.07,11.12,21.21,27.93,27.93,23.59,9.43,54.68-1.47,73.94-28.6.33-87.73.66-175.45.99-263.18,2.84-9.34,8.52-22.02,20.49-29.67,27.92-17.84,68.94,5.18,89.92,16.96,6.67,3.74,40.43,23.24,67.87,64.98,14.93,22.71,22.74,44.02,26.96,58.55,11.71,42.1,23.42,84.19,35.14,126.29,1.44,6.14,10.15,40.64,44.1,60.27,3.4,1.97,30.77,17.1,64.7,10.33,52.83-10.54,76.02-65.69,79.73-74.53,5.55-13.2,8.71-31.2,15.04-67.2,5.79-32.93,4.37-35.95,7.67-51.18,10.45-48.22,38.4-81.38,49.5-94.26,24.02-27.87,48.29-56.94,87.26-61.18,8.84-.96,33.97-3.31,56.79,13.25,27.96,20.3,31.06,53.49,31.48,58.96-1.34,78.23-2.67,156.47-4.01,234.7,1.78,2,29.84,32.53,68.75,25.49,23.02-4.16,37.03-19.16,41.58-24.49V70.69c-9.43-25.69-34.71-41.01-59.26-37.4ZM2708.58,521.66c-123.47,22.05-188.36,86.94-210.41,210.41-3.82,29.65-7.64,59.29-11.46,88.94,1.36,21.61-15.46,39.99-35.96,40.85-21.33.89-40.08-17.46-39.21-39.99-.96-22.22-3.96-53.51-13.16-89.79-11.68-46.02-24.57-97.62-67.17-143.24-57.1-61.14-126.09-75.01-147.62-78.47-26.81-3.31-53.63-6.62-80.44-9.93-12.62-1.7-22.37-11.36-23.84-22.84-1.74-13.65,8.55-27.46,23.84-29.79,14.32-1.61,34.17-4.3,57.6-8.94,31.45-6.23,57.55-11.39,84.42-22.84,8.93-3.8,49.27-21.65,86.04-61.31,50.39-54.35,63.28-116.45,67.17-143.24,5.47-34.47,10.95-68.95,16.42-103.42,4.53-14.53,18.17-24.33,33.17-23.96,15.54.39,29.01,11.61,32.28,27.04,5.97,33.44,11.95,66.89,17.92,100.33,22.05,123.47,86.94,188.36,210.41,210.41l104.83,30.24c13.42,4.95,22.97,16.6,24.37,29.91,1.76,16.76-9.68,33.53-27.69,38.77-33.83.29-67.67.57-101.5.86Z"/>
  <path d="M2423.68,860.18"/>
  <path d="M2479.98,910.13"/>
  <path d="M1437.23,1058.32"/>
  <path d="M1493.52,1108.28"/>
  <g class="st3">
    <path class="st2" d="M2756.11,1250.53c-19.61,2.89-36.27,17.49-43.04,37.4,1,85.53,2.01,171.06,3.01,256.59-.08,7.75-1.22,33.79-19.06,46.14-16.31,11.29-37.35,4.76-64.19-4.01-23.11-7.55-56.57-18.48-90.27-49.15-43.6-39.68-59.44-86.75-65.19-108.32-10.22-30.36-14.36-55.25-16.23-72.56-1.81-16.74-1.59-27.2-7.1-43.67-3.67-10.97-9.63-28.8-25.82-44.25-24.46-23.34-55.16-24.91-62.59-25.07-12.17-.27-41.69,1.43-65.8,24.07-14.92,14.01-21.24,29.93-23.89,38.25-9.52,38.39-19.04,76.78-28.56,115.17-3.23,19.9-13.21,63.59-48.85,103.34-37.12,41.41-80.15,54.14-98.29,59.18-18.88,5.24-42.28,11.4-57.23-.7-13.34-10.8-13.51-30.93-13.59-40.05-.43-49.8-1.27-137.4-1.02-250.13-5.64-24.14-27.61-40.84-51.61-39.83-22.45.95-41.97,17.19-47.25,39.69v803.12c2.87,6.07,11.12,21.21,27.93,27.93,23.59,9.43,54.68-1.47,73.94-28.6.33-87.73.66-175.45.99-263.18,2.84-9.34,8.52-22.02,20.49-29.67,27.92-17.84,68.94,5.18,89.92,16.96,6.67,3.74,40.43,23.24,67.87,64.98,14.93,22.71,22.74,44.02,26.96,58.55,11.71,42.1,23.42,84.19,35.14,126.29,1.44,6.14,10.15,40.64,44.1,60.27,3.4,1.97,30.77,17.1,64.7,10.33,52.83-10.54,76.02-65.69,79.73-74.53,5.55-13.2,8.71-31.2,15.04-67.2,5.79-32.93,4.37-35.95,7.67-51.18,10.45-48.22,38.4-81.38,49.5-94.26,24.02-27.87,48.29-56.94,87.26-61.18,8.84-.96,33.97-3.31,56.79,13.25,27.96,20.3,31.06,53.49,31.48,58.96-1.34,78.23-2.67,156.47-4.01,234.7,1.78,2,29.84,32.53,68.75,25.49,23.02-4.16,37.03-19.16,41.58-24.49v-811.24c-9.43-25.69-34.71-41.01-59.26-37.4ZM2625.92,1738.9c-123.47,22.05-188.36,86.94-210.41,210.41-3.82,29.65-7.64,59.29-11.46,88.94,1.36,21.61-15.46,39.99-35.96,40.85-21.33.89-40.08-17.46-39.21-39.99-.96-22.22-3.96-53.51-13.16-89.79-11.68-46.02-24.57-97.62-67.17-143.24-57.1-61.14-126.09-75.01-147.62-78.47-26.81-3.31-53.63-6.62-80.44-9.93-12.62-1.7-22.37-11.36-23.84-22.84-1.74-13.65,8.55-27.46,23.84-29.79,14.32-1.61,34.17-4.3,57.6-8.94,31.45-6.23,57.55-11.39,84.42-22.84,8.93-3.8,49.27-21.65,86.04-61.31,50.39-54.35,63.28-116.45,67.17-143.24,5.47-34.47,10.95-68.95,16.42-103.42,4.53-14.53,18.17-24.33,33.17-23.96,15.54.39,29.01,11.61,32.28,27.04,5.97,33.44,11.95,66.89,17.92,100.33,22.05,123.47,86.94,188.36,210.41,210.41l104.83,30.24c13.42,4.95,22.97,16.6,24.37,29.91,1.76,16.76-9.68,33.53-27.69,38.77-33.83.29-67.67.57-101.5.86Z"/>
  </g>
  <g class="st1">
    <path class="st2" d="M1976.07,1250.92c19.61,2.89,36.27,17.49,43.04,37.4-1,85.53-2.01,171.06-3.01,256.59.08,7.75,1.22,33.79,19.06,46.14,16.31,11.29,37.35,4.76,64.19-4.01,23.11-7.55,56.57-18.48,90.27-49.15,43.6-39.68,59.44-86.75,65.19-108.32,10.22-30.36,14.36-55.25,16.23-72.56,1.81-16.74,1.59-27.2,7.1-43.67,3.67-10.97,9.63-28.8,25.82-44.25,24.46-23.34,55.16-24.91,62.59-25.07,12.17-.27,41.69,1.43,65.8,24.07,14.92,14.01,21.24,29.93,23.89,38.25,9.52,38.39,19.04,76.78,28.56,115.17,3.23,19.9,13.21,63.59,48.85,103.34,37.12,41.41,80.15,54.14,98.29,59.18,18.88,5.24,42.28,11.4,57.23-.7,13.34-10.8,13.51-30.93,13.59-40.05.43-49.8,1.27-137.4,1.02-250.13,5.64-24.14,27.61-40.84,51.61-39.83,22.45.95,41.97,17.19,47.25,39.69v803.12c-2.87,6.07-11.12,21.21-27.93,27.93-23.59,9.43-54.68-1.47-73.94-28.6-.33-87.73-.66-175.45-.99-263.18-2.84-9.34-8.52-22.02-20.49-29.67-27.92-17.84-68.94,5.18-89.92,16.96-6.67,3.74-40.43,23.24-67.87,64.98-14.93,22.71-22.74,44.02-26.96,58.55-11.71,42.1-23.42,84.19-35.14,126.29-1.44,6.14-10.15,40.64-44.1,60.27-3.4,1.97-30.77,17.1-64.7,10.33-52.83-10.54-76.02-65.69-79.73-74.53-5.55-13.2-8.71-31.2-15.04-67.2-5.79-32.93-4.37-35.95-7.67-51.18-10.45-48.22-38.4-81.38-49.5-94.26-24.02-27.87-48.29-56.94-87.26-61.18-8.84-.96-33.97-3.31-56.79,13.25-27.96,20.3-31.06,53.49-31.48,58.96,1.34,78.23,2.67,156.47,4.01,234.7-1.78,2-29.84,32.53-68.75,25.49-23.02-4.16-37.03-19.16-41.58-24.49v-811.24c9.43-25.69,34.71-41.01,59.26-37.4ZM2106.26,1739.29c123.47,22.05,188.36,86.94,210.41,210.41,3.82,29.65,7.64,59.29,11.46,88.94-1.36,21.61,15.46,39.99,35.96,40.85,21.33.89,40.08-17.46,39.21-39.99.96-22.22,3.96-53.51,13.16-89.79,11.68-46.02,24.57-97.62,67.17-143.24,57.1-61.14,126.09-75.01,147.62-78.47,26.81-3.31,53.63-6.62,80.44-9.93,12.62-1.7,22.37-11.36,23.84-22.84,1.74-13.65-8.55-27.46-23.84-29.79-14.32-1.61-34.17-4.3-57.6-8.94-31.45-6.23-57.55-11.39-84.42-22.84-8.93-3.8-49.27-21.65-86.04-61.31-50.39-54.35-63.28-116.45-67.17-143.24-5.47-34.47-10.95-68.95-16.42-103.42-4.53-14.53-18.17-24.33-33.17-23.96-15.54.39-29.01,11.61-32.28,27.04-5.97,33.44-11.95,66.89-17.92,100.33-22.05,123.47-86.94,188.36-210.41,210.41l-104.83,30.24c-13.42,4.95-22.97,16.6-24.37,29.91-1.76,16.76,9.68,33.53,27.69,38.77,33.83.29,67.67.57,101.5.86Z"/>
  </g>
</svg>