<?xml version="1.0" encoding="UTF-8"?><svg id="Layer_1" xmlns="http://www.w3.org/2000/svg" viewBox="0 0 872.17 872.17"><defs><style>.cls-1{fill:#7977ff;}.cls-2{fill:#c4cdff;}</style></defs><rect class="cls-1" y="0" width="872.17" height="872.17" rx="80" ry="80"/><path class="cls-2" d="M715.91,137.11c-10.56,0-19.15,8.59-19.15,19.15v181.87c-.17,13.4-4.24,23.17-12.42,29.9-18.14,14.93-53.43,12.46-65.59,10.23-37.65-6.73-65.58-19.64-85.41-39.46-19.81-19.82-32.72-47.74-39.44-85.39l-14.25-79.81c-4.47-25.06-25.72-36.49-43.58-36.49s-39.11,11.42-43.58,36.49l-14.25,79.81c-6.73,37.65-19.63,65.58-39.46,85.41-19.82,19.82-47.75,32.72-85.49,39.46-12.1,2.21-47.44,4.68-65.55-10.4-8.32-6.93-12.36-17.06-12.36-30.98v-180.64c0-10.56-8.58-19.15-19.13-19.15s-19.15,8.59-19.15,19.15v558.68c0,10.56,8.59,19.15,19.15,19.15s19.15-8.59,19.15-19.15v-179.69c0-8.52,0-34.43,46.73-40.63,16.65-2.2,34.12-.9,51.89,3.86,27.51,7.38,48.7,18.8,64.8,34.9,19.81,19.82,32.72,47.75,39.44,85.39l14.25,79.81c4.48,25.07,25.72,36.49,43.57,36.49h.01c17.85,0,39.11-11.42,43.58-36.49l14.25-79.81c6.73-37.65,19.63-65.58,39.46-85.41,16.13-16.13,37.39-27.56,64.99-34.94,17.7-4.73,35.02-6.09,51.51-4.02,46.44,5.8,46.78,31.25,46.89,39.43v181.11c0,10.56,8.59,19.15,19.15,19.15s19.15-8.59,19.15-19.15V156.26c0-10.56-8.6-19.15-19.16-19.15ZM694.35,456.04l-79.81,14.25c-84.65,15.12-129.14,59.61-144.26,144.26l-14.25,79.81c-2.2,12.33-12.12,16.7-19.95,16.7s-17.75-4.37-19.96-16.7l-14.25-79.81c-15.12-84.65-59.61-129.14-144.26-144.26l-79.81-14.25c-12.33-2.2-16.71-12.12-16.71-19.95s4.37-17.76,16.71-19.95l79.81-14.25c84.65-15.12,129.14-59.61,144.26-144.26l14.25-79.81c2.2-12.33,12.13-16.71,19.96-16.71s17.75,4.38,19.95,16.71l14.25,79.81c15.12,84.65,59.61,129.14,144.26,144.26l79.81,14.25c12.33,2.2,16.71,12.12,16.71,19.95s-4.37,17.75-16.71,19.95h0Z"/></svg>