<?xml version="1.0" encoding="UTF-8"?>
<svg id="Layer_1" data-name="Layer 1" xmlns="http://www.w3.org/2000/svg" viewBox="0 0 1464.6 1284.64">
  <defs>
    <style>
      .cls-1 {
        fill: none;
        stroke: #7777fd;
        stroke-miterlimit: 10;
        stroke-width: 3px;
      }
    </style>
  </defs>
  <path class="cls-1" d="M3338.32-675.78c2.55-.27,4.54,1.91,4.92,4.32l.1,51.97c.36,4.99,3.06,7.71,7.71,9.22,2.91.94,7.37,1.23,10.4.92,9.01-.92,19.1-4.21,25.81-10.57,6.19-5.86,9.41-14.02,11.05-22.26l4.32-24.02c1.01-5.39,5.81-9.61,11.29-9.67h.09c.54.04,1.07.07,1.6.09,2.17-.21,4.36.69,6.15,1.89,2.92,1.95,4.06,4.15,5.07,7.41l4.28,23.88c2.21,12.21,8,22.82,19.45,28.37,5.92,2.87,13.73,5.01,20.25,4.94,4.14-.04,9.11-.53,12.36-3.47,2.17-1.96,2.71-4.25,3.02-7.02l.03-51.44c.37-2.51,2.27-4.59,4.87-4.66h.09c.35.03.7.07,1.04.09,1.13,0,2.16.53,3.01,1.32,1.13.97,1.63,2.33,1.79,3.84v153.8c-.16,1.25-.47,2.46-1.34,3.33-1.01,1.3-2.88,2.03-4.45,1.88-2.51-.25-4.52-2.15-4.86-4.7v-51.28c-.21-2.04-.82-3.93-2.19-5.41-2.85-3.3-8.41-4.45-12.56-4.69-4.54-.27-8.57.23-12.95,1.47-5.95,1.67-11.58,4.26-16.16,8.43-3.51,3.2-6.21,7.24-8.1,11.61-1.52,3.51-2.69,7.16-3.37,10.95l-4.31,23.95c-.77,4.26-3.65,7.72-7.73,9.17s-8.85.73-12.29-2.17c-.57-.48-.84-.79-1.31-1.33-1.59-1.79-2.38-3.94-2.79-6.29l-3.52-19.81c-.56-3.15-1.16-6.18-2.1-9.23-.84-2.71-1.83-5.28-3.15-7.78-1.92-3.65-4.11-6.56-7.18-9.32-4.73-4.25-10.63-6.8-16.74-8.43-2.63-.7-5.2-1.09-7.9-1.24-3.41-.19-7.48.21-10.74,1.24-4.33,1.37-7.68,3.93-8.16,8.76v51.27c-.36,2.53-2.21,4.5-4.71,4.79-3.13.36-5.85-2.2-5.85-4.74-.03-51.52-.06-103.05-.09-154.59v-.09c0-2.56,2.25-4.81,4.81-4.81h.09c.32.03.63.07.94.09ZM3410.96-519.44c1.04.97,2.28,1.32,3.62,1.38,2.68.13,5.08-1.58,5.56-4.28l3.96-22.12c2.26-12.64,7.13-23.96,17.93-31.47,6.47-4.49,14.13-6.93,21.85-8.32l22.12-3.96c2.79-.5,4.47-2.99,4.29-5.76s-1.88-4.61-4.65-5.1l-20.53-3.66c-2.43-.43-4.73-.87-7.1-1.5-7.66-2.02-14.7-5.22-20.48-10.7-.49-.46-.94-.88-1.38-1.37l-.77-.84c-5.92-6.46-9.5-15.81-11.05-24.38l-4.26-23.63c-.16-.87-.63-1.68-1.22-2.3-2.06-2.17-5.54-2.33-7.83-.38-.83.7-1.43,1.69-1.63,2.81l-4.17,23.15c-.51,2.82-1.19,5.51-2.05,8.23-1.92,6.03-4.77,11.72-9.02,16.43-3.66,4.06-7.69,6.98-12.61,9.35s-10.6,3.94-16.11,4.93l-22.19,4c-2.31.42-3.78,2.41-4.05,4.65-.21,1.77.39,3.57,1.69,4.79.6.56,1.37,1.05,2.22,1.2l20.99,3.76c3.57.64,7.03,1.34,10.48,2.45,2.99.96,5.84,2.08,8.61,3.55,7.79,4.14,13.47,10.14,17.27,18.08,2.26,4.74,3.85,10.04,4.78,15.22l4.15,23.07c.19,1.06.8,2,1.56,2.72ZM221.28,114.28c16.05-1.69,28.56,12,30.94,27.18l.62,327.06c2.28,31.41,19.24,48.54,48.49,58,18.32,5.92,46.36,7.72,65.42,5.77,56.71-5.79,120.22-26.51,162.45-66.52,38.95-36.9,59.22-88.24,69.56-140.07l27.2-151.18c6.37-33.9,36.54-60.49,71.08-60.84h.59c3.38.23,6.74.43,10.08.59,13.68-1.33,27.47,4.37,38.73,11.88,18.38,12.26,25.56,26.12,31.9,46.66l26.95,150.27c13.92,76.83,50.35,143.62,122.43,178.56,37.26,18.06,86.39,31.51,127.46,31.07,26.08-.28,57.36-3.36,77.79-21.82,13.68-12.36,17.05-26.72,19.03-44.18l.2-323.73c2.3-15.77,14.3-28.88,30.68-29.31h.59c2.21.22,4.38.41,6.53.59,7.08,0,13.62,3.31,18.97,8.32,7.11,6.11,10.28,14.65,11.27,24.14v967.89c-1.02,7.89-2.98,15.47-8.46,20.97-6.35,8.15-18.12,12.8-27.99,11.81-15.8-1.58-28.45-13.55-30.56-29.56l-.06-322.72c-1.23-12.84-5.1-24.75-13.74-34.03-17.93-20.78-52.95-27.98-79.04-29.54-28.59-1.7-53.93,1.47-81.5,9.22-37.44,10.52-72.9,26.79-101.73,53.08-22.1,20.15-39.09,45.57-51,73.07-9.57,22.09-16.9,45.05-21.2,68.92l-27.15,150.7c-4.83,26.8-22.97,48.58-48.62,57.73s-55.72,4.6-77.36-13.64c-3.6-3.04-5.27-4.97-8.27-8.34-9.99-11.24-14.95-24.82-17.57-39.58l-22.16-124.68c-3.52-19.81-7.29-38.92-13.22-58.09-5.27-17.07-11.53-33.2-19.82-48.98-12.05-22.94-25.89-41.27-45.19-58.63-29.76-26.77-66.89-42.82-105.34-53.03-16.53-4.39-32.75-6.86-49.71-7.8-21.45-1.19-47.08,1.31-67.59,7.78-27.27,8.6-48.33,24.71-51.38,55.14l-.08,322.68c-2.16,15.95-13.81,28.31-29.57,30.13-19.73,2.28-36.84-13.85-36.84-29.8-.2-324.24-.4-648.54-.59-972.88v-.59c-.02-16.12,14.15-30.27,30.25-30.25h.59c2.01.21,3.99.41,5.93.59ZM678.42,1098.2c6.55,6.13,14.37,8.3,22.77,8.69,16.88.8,31.96-9.95,35.01-26.97l24.93-139.19c14.25-79.57,44.85-150.81,112.87-198.07,40.69-28.27,88.92-43.63,137.54-52.34l139.18-24.93c17.57-3.15,28.12-18.82,26.97-36.23-1.15-17.51-11.85-29-29.25-32.1l-129.18-23.04c-15.27-2.72-29.76-5.47-44.7-9.41-48.24-12.72-92.52-32.87-128.88-67.34-3.07-2.91-5.91-5.54-8.71-8.6l-4.86-5.31c-37.24-40.67-59.8-99.49-69.52-153.44l-26.8-148.71c-.99-5.48-3.95-10.55-7.66-14.44-12.99-13.65-34.88-14.64-49.26-2.42-5.22,4.43-9.02,10.67-10.28,17.66l-26.21,145.72c-3.2,17.76-7.47,34.68-12.91,51.8-12.06,37.96-30,73.77-56.75,103.42-23.02,25.52-48.37,43.95-79.33,58.85-31.71,15.26-66.69,24.77-101.37,31.01l-139.63,25.15c-14.54,2.62-23.77,15.16-25.47,29.23-1.34,11.13,2.43,22.48,10.66,30.14,3.79,3.52,8.61,6.61,13.99,7.57l132.07,23.68c22.46,4.03,44.27,8.45,65.94,15.42,18.85,6.07,36.76,13.07,54.19,22.34,49,26.04,84.74,63.79,108.66,113.79,14.25,29.8,24.2,63.17,30.06,95.76l26.12,145.2c1.2,6.68,5.02,12.61,9.81,17.09Z"/>
</svg>